<?xml version="1.0" encoding="UTF-8" standalone="no"?> <svg xmlns="http://www.w3.org/2000/svg" xmlns:xlink="http://www.w3.org/1999/xlink" xmlns:serif="http://www.serif.com/" width="100%" height="100%" viewBox="0 0 65 59" version="1.1" xml:space="preserve" style="fill-rule:evenodd;clip-rule:evenodd;stroke-linejoin:round;stroke-miterlimit:2;"> <g transform="matrix(1,0,0,1,-1619.09,-90.8985)"> <g id="Like" transform="matrix(0.0800562,0,0,0.0966764,1619.09,90.8985)"> <rect x="0" y="0" width="800" height="600" style="fill:none;"></rect> <g transform="matrix(6.5131,0,0,5.3934,-2511.1,-4393.1)"> <circle cx="446.961" cy="870.156" r="48.514" style="fill:rgb(2,108,196);"></circle> </g> <g transform="matrix(13.0707,0,0,14.9319,-3266.37,-5656.51)"> <g transform="matrix(0.0551713,0,0,0.0399917,266.38,388.674)"> <path d="M53.333,224C23.936,224 0,247.936 0,277.333L0,448C0,477.397 23.936,501.333 53.333,501.333L117.333,501.333C129.344,501.333 140.394,497.28 149.333,490.538L149.333,224L53.333,224Z" style="fill:white;fill-rule:nonzero;"></path> </g> <g transform="matrix(0.0551713,0,0,0.0399917,266.38,388.674)"> <path d="M512,304C512,291.179 506.923,279.232 498.112,270.421C508.075,259.52 513.152,244.906 511.765,229.696C509.269,202.581 484.842,181.333 456.128,181.333L324.352,181.333C330.88,161.514 341.333,125.184 341.333,96C341.333,49.728 302.016,10.667 277.333,10.667C255.168,10.667 239.338,23.147 238.656,23.659C236.139,25.686 234.667,28.758 234.667,32L234.667,104.341L173.227,237.44L170.667,238.741L170.667,467.392C188.032,475.584 210.005,480 224,480L419.819,480C443.051,480 463.382,464.341 468.16,442.731C470.613,431.616 469.184,420.416 464.299,410.688C480.064,402.752 490.667,386.517 490.667,368C490.667,360.448 488.939,353.216 485.654,346.667C501.419,338.731 512,322.496 512,304Z" style="fill:white;fill-rule:nonzero;"></path> </g> </g> </g> </g> </svg> 